<?xml version="1.0" encoding="UTF-8"?>
<svg xmlns="http://www.w3.org/2000/svg" xmlns:xlink="http://www.w3.org/1999/xlink" width="759.8pt" height="141.32pt" viewBox="0 0 759.8 141.32" version="1.1">
<defs>
<clipPath id="clip1">
  <path d="M 426 99 L 476 99 L 476 141.320313 L 426 141.320313 Z M 426 99 "/>
</clipPath>
<clipPath id="clip2">
  <path d="M 447 98 L 487 98 L 487 141.320313 L 447 141.320313 Z M 447 98 "/>
</clipPath>
<clipPath id="clip3">
  <path d="M 464 99 L 516 99 L 516 141.320313 L 464 141.320313 Z M 464 99 "/>
</clipPath>
<clipPath id="clip4">
  <path d="M 487 106 L 535 106 L 535 141.320313 L 487 141.320313 Z M 487 106 "/>
</clipPath>
<clipPath id="clip5">
  <path d="M 507 106 L 557 106 L 557 141.320313 L 507 141.320313 Z M 507 106 "/>
</clipPath>
<clipPath id="clip6">
  <path d="M 530 106 L 577 106 L 577 141.320313 L 530 141.320313 Z M 530 106 "/>
</clipPath>
<clipPath id="clip7">
  <path d="M 547 106 L 596 106 L 596 141.320313 L 547 141.320313 Z M 547 106 "/>
</clipPath>
<clipPath id="clip8">
  <path d="M 576 106 L 623 106 L 623 141.320313 L 576 141.320313 Z M 576 106 "/>
</clipPath>
<clipPath id="clip9">
  <path d="M 593 106 L 642 106 L 642 141.320313 L 593 141.320313 Z M 593 106 "/>
</clipPath>
<clipPath id="clip10">
  <path d="M 614 106 L 664 106 L 664 141.320313 L 614 141.320313 Z M 614 106 "/>
</clipPath>
<clipPath id="clip11">
  <path d="M 645 99 L 699 99 L 699 141.320313 L 645 141.320313 Z M 645 99 "/>
</clipPath>
<clipPath id="clip12">
  <path d="M 666 107 L 705 107 L 705 141.320313 L 666 141.320313 Z M 666 107 "/>
</clipPath>
<clipPath id="clip13">
  <path d="M 675 106 L 721 106 L 721 141.320313 L 675 141.320313 Z M 675 106 "/>
</clipPath>
<clipPath id="clip14">
  <path d="M 692 107 L 731 107 L 731 141.320313 L 692 141.320313 Z M 692 107 "/>
</clipPath>
<clipPath id="clip15">
  <path d="M 703 98 L 752 98 L 752 141.320313 L 703 141.320313 Z M 703 98 "/>
</clipPath>
<clipPath id="clip16">
  <path d="M 739 120 L 759.800781 120 L 759.800781 141 L 739 141 Z M 739 120 "/>
</clipPath>
<clipPath id="clip17">
  <path d="M 724 106 L 759.800781 106 L 759.800781 141.320313 L 724 141.320313 Z M 724 106 "/>
</clipPath>
</defs>
<g id="surface1">
<path style="fill-rule:nonzero;fill:rgb(0%,50.59967%,58.799744%);fill-opacity:1;stroke-width:2.5;stroke-linecap:butt;stroke-linejoin:miter;stroke:rgb(0%,50.59967%,58.799744%);stroke-opacity:1;stroke-miterlimit:10;" d="M 7164.53125 224.45 L 7107.03125 224.45 L 7117.1875 281.95 L 7174.6875 281.95 Z M 7164.53125 224.45 " transform="matrix(0.1,0,0,-0.1,0,141.32)"/>
<path style="fill-rule:nonzero;fill:rgb(0%,50.59967%,58.799744%);fill-opacity:1;stroke-width:2.5;stroke-linecap:butt;stroke-linejoin:miter;stroke:rgb(0%,50.59967%,58.799744%);stroke-opacity:1;stroke-miterlimit:10;" d="M 6903.085938 224.45 L 6845.585938 224.45 L 6855.703125 281.95 L 6913.203125 281.95 Z M 6903.085938 224.45 " transform="matrix(0.1,0,0,-0.1,0,141.32)"/>
<path style=" stroke:none;fill-rule:nonzero;fill:rgb(0%,50.59967%,58.799744%);fill-opacity:1;" d="M 0 115.386719 L 115.386719 115.386719 L 115.386719 0.00390625 L 0 0.00390625 Z M 0 115.386719 "/>
<path style=" stroke:none;fill-rule:nonzero;fill:rgb(100%,100%,100%);fill-opacity:1;" d="M 25.5625 90.058594 L 39.167969 90.058594 L 39.167969 25.566406 L 25.5625 25.566406 Z M 25.5625 90.058594 "/>
<path style=" stroke:none;fill-rule:nonzero;fill:rgb(100%,100%,100%);fill-opacity:1;" d="M 61.445313 25.566406 L 73.640625 25.566406 C 73.640625 25.566406 87.710938 26.503906 88.414063 40.574219 C 88.414063 40.574219 89.820313 49.253906 79.503906 54.414063 C 79.503906 54.414063 90.992188 59.335938 90.054688 72.46875 C 90.054688 72.46875 89.820313 86.542969 74.578125 90.058594 L 58.863281 90.058594 C 58.863281 90.058594 74.34375 88.417969 76.6875 73.878906 C 76.6875 73.878906 78.800781 61.449219 65.902344 54.648438 C 65.902344 54.648438 76.21875 50.425781 75.515625 40.105469 C 75.515625 40.105469 73.875 27.210938 61.445313 25.566406 "/>
<path style=" stroke:none;fill-rule:nonzero;fill:rgb(100%,100%,100%);fill-opacity:1;" d="M 38.929688 25.566406 L 51.125 25.566406 C 51.125 25.566406 65.199219 26.503906 65.902344 40.574219 C 65.902344 40.574219 67.308594 49.253906 56.988281 54.414063 C 56.988281 54.414063 68.480469 59.335938 67.542969 72.46875 C 67.542969 72.46875 67.308594 86.542969 52.0625 90.058594 L 39.164063 90.058594 C 39.164063 90.058594 51.828125 88.417969 54.175781 73.878906 C 54.175781 73.878906 56.285156 61.449219 43.386719 54.648438 C 43.386719 54.648438 53.707031 50.425781 53 40.105469 C 53 40.105469 51.359375 27.210938 38.929688 25.566406 "/>
<path style=" stroke:none;fill-rule:nonzero;fill:rgb(0%,50.59967%,58.799744%);fill-opacity:1;" d="M 158.378906 80.574219 C 159.738281 80.746094 161.527344 80.832031 163.914063 80.832031 C 170.640625 80.832031 176.601563 78.277344 176.601563 71.210938 C 176.601563 64.566406 170.808594 61.839844 163.570313 61.839844 L 158.378906 61.839844 Z M 158.378906 54.175781 L 163.742188 54.175781 C 170.980469 54.175781 175.066406 50.773438 175.066406 45.917969 C 175.066406 40.550781 170.980469 38.082031 164.335938 38.082031 C 161.273438 38.082031 159.484375 38.253906 158.378906 38.507813 Z M 147.988281 31.527344 C 151.308594 30.84375 157.355469 30.335938 163.230469 30.335938 C 170.980469 30.335938 175.746094 31.273438 179.664063 33.996094 C 183.242188 36.125 185.628906 39.871094 185.628906 44.722656 C 185.628906 50.003906 182.304688 54.859375 176.089844 57.15625 L 176.089844 57.328125 C 182.136719 58.863281 187.671875 63.628906 187.671875 71.550781 C 187.671875 76.660156 185.457031 80.660156 182.136719 83.386719 C 178.046875 86.960938 171.320313 88.75 160.847656 88.75 C 155.054688 88.75 150.628906 88.324219 147.988281 87.984375 "/>
<path style=" stroke:none;fill-rule:nonzero;fill:rgb(0%,50.59967%,58.799744%);fill-opacity:1;" d="M 214.6875 67.886719 C 207.28125 67.714844 200.210938 69.332031 200.210938 75.636719 C 200.210938 79.722656 202.851563 81.597656 206.171875 81.597656 C 210.34375 81.597656 213.410156 78.875 214.347656 75.890625 C 214.601563 75.125 214.6875 74.277344 214.6875 73.59375 Z M 216.050781 88.15625 L 215.371094 83.554688 L 215.113281 83.554688 C 212.558594 86.792969 208.214844 89.089844 202.851563 89.089844 C 194.507813 89.089844 189.824219 83.042969 189.824219 76.742188 C 189.824219 66.269531 199.105469 60.992188 214.433594 61.074219 L 214.433594 60.394531 C 214.433594 57.667969 213.324219 53.15625 206.003906 53.15625 C 201.914063 53.15625 197.65625 54.433594 194.847656 56.21875 L 192.804688 49.410156 C 195.867188 47.535156 201.234375 45.746094 207.789063 45.746094 C 221.074219 45.746094 224.90625 54.175781 224.90625 63.203125 L 224.90625 78.191406 C 224.90625 81.9375 225.078125 85.597656 225.503906 88.15625 "/>
<path style=" stroke:none;fill-rule:nonzero;fill:rgb(0%,50.59967%,58.799744%);fill-opacity:1;" d="M 232.226563 59.03125 C 232.226563 54.261719 232.140625 50.261719 231.886719 46.683594 L 241.082031 46.683594 L 241.59375 52.898438 L 241.851563 52.898438 C 243.640625 49.664063 248.152344 45.746094 255.046875 45.746094 C 262.285156 45.746094 269.78125 50.429688 269.78125 63.542969 L 269.78125 88.15625 L 259.308594 88.15625 L 259.308594 64.738281 C 259.308594 58.777344 257.09375 54.261719 251.386719 54.261719 C 247.214844 54.261719 244.320313 57.242188 243.214844 60.394531 C 242.871094 61.332031 242.785156 62.609375 242.785156 63.800781 L 242.785156 88.15625 L 232.226563 88.15625 "/>
<path style=" stroke:none;fill-rule:nonzero;fill:rgb(0%,50.59967%,58.799744%);fill-opacity:1;" d="M 308.523438 86.875 C 306.308594 87.898438 301.964844 89.003906 296.773438 89.003906 C 283.828125 89.003906 275.398438 80.746094 275.398438 67.886719 C 275.398438 55.457031 283.914063 45.746094 298.472656 45.746094 C 302.304688 45.746094 306.222656 46.597656 308.605469 47.707031 L 306.734375 55.539063 C 305.03125 54.773438 302.5625 53.921875 298.816406 53.921875 C 290.8125 53.921875 286.042969 59.796875 286.128906 67.375 C 286.128906 75.890625 291.660156 80.746094 298.816406 80.746094 C 302.476563 80.746094 305.03125 79.980469 307.074219 79.128906 "/>
<path style=" stroke:none;fill-rule:nonzero;fill:rgb(0%,50.59967%,58.799744%);fill-opacity:1;" d="M 319.421875 67.460938 C 319.421875 75.464844 323.339844 81.511719 329.726563 81.511719 C 335.6875 81.511719 339.859375 75.636719 339.859375 67.292969 C 339.859375 60.820313 336.964844 53.410156 329.8125 53.410156 C 322.402344 53.410156 319.421875 60.5625 319.421875 67.460938 M 350.675781 67.035156 C 350.675781 82.277344 339.945313 89.089844 329.386719 89.089844 C 317.632813 89.089844 308.609375 81.003906 308.609375 67.714844 C 308.609375 54.09375 317.550781 45.746094 330.066406 45.746094 C 342.414063 45.746094 350.675781 54.433594 350.675781 67.035156 "/>
<path style=" stroke:none;fill-rule:nonzero;fill:rgb(0%,50.59967%,58.799744%);fill-opacity:1;" d="M 387.335938 79.769531 C 388.695313 79.9375 390.484375 80.023438 392.871094 80.023438 C 399.597656 80.023438 405.558594 77.472656 405.558594 70.402344 C 405.558594 63.761719 399.769531 61.035156 392.527344 61.035156 L 387.335938 61.035156 Z M 387.335938 53.371094 L 392.699219 53.371094 C 399.9375 53.371094 404.023438 49.964844 404.023438 45.109375 C 404.023438 39.746094 399.9375 37.277344 393.296875 37.277344 C 390.230469 37.277344 388.441406 37.449219 387.335938 37.703125 Z M 376.945313 30.71875 C 380.269531 30.039063 386.3125 29.527344 392.1875 29.527344 C 399.9375 29.527344 404.707031 30.464844 408.621094 33.191406 C 412.199219 35.320313 414.585938 39.0625 414.585938 43.917969 C 414.585938 49.199219 411.265625 54.050781 405.046875 56.351563 L 405.046875 56.523438 C 411.09375 58.054688 416.628906 62.824219 416.628906 70.742188 C 416.628906 75.851563 414.414063 79.855469 411.09375 82.578125 C 407.003906 86.15625 400.277344 87.945313 389.804688 87.945313 C 384.011719 87.945313 379.585938 87.515625 376.945313 87.179688 "/>
<path style=" stroke:none;fill-rule:nonzero;fill:rgb(0%,50.59967%,58.799744%);fill-opacity:1;" d="M 431.269531 66.65625 C 431.269531 74.660156 435.1875 80.707031 441.574219 80.707031 C 447.535156 80.707031 451.707031 74.828125 451.707031 66.484375 C 451.707031 60.011719 448.8125 52.605469 441.65625 52.605469 C 434.25 52.605469 431.269531 59.757813 431.269531 66.65625 M 462.519531 66.230469 C 462.519531 81.472656 451.789063 88.285156 441.234375 88.285156 C 429.480469 88.285156 420.457031 80.195313 420.457031 66.910156 C 420.457031 53.285156 429.398438 44.941406 441.914063 44.941406 C 454.261719 44.941406 462.519531 53.625 462.519531 66.230469 "/>
<path style=" stroke:none;fill-rule:nonzero;fill:rgb(0%,50.59967%,58.799744%);fill-opacity:1;" d="M 468.222656 87.347656 L 478.785156 87.347656 L 478.785156 26.886719 L 468.222656 26.886719 Z M 468.222656 87.347656 "/>
<path style=" stroke:none;fill-rule:nonzero;fill:rgb(0%,50.59967%,58.799744%);fill-opacity:1;" d="M 487.210938 87.347656 L 497.769531 87.347656 L 497.769531 45.878906 L 487.210938 45.878906 Z M 487.210938 87.347656 "/>
<path style=" stroke:none;fill-rule:nonzero;fill:rgb(0%,50.59967%,58.799744%);fill-opacity:1;" d="M 512.753906 45.878906 L 519.480469 66.910156 C 520.675781 70.574219 521.527344 73.894531 522.292969 77.296875 L 522.546875 77.296875 C 523.3125 73.894531 524.253906 70.65625 525.359375 66.910156 L 531.914063 45.878906 L 542.984375 45.878906 L 527.148438 87.347656 L 516.84375 87.347656 L 501.429688 45.878906 "/>
<path style=" stroke:none;fill-rule:nonzero;fill:rgb(0%,50.59967%,58.799744%);fill-opacity:1;" d="M 567.933594 67.082031 C 560.527344 66.910156 553.457031 68.527344 553.457031 74.828125 C 553.457031 78.917969 556.09375 80.792969 559.414063 80.792969 C 563.589844 80.792969 566.65625 78.066406 567.59375 75.085938 C 567.847656 74.320313 567.933594 73.46875 567.933594 72.785156 Z M 569.296875 87.347656 L 568.613281 82.75 L 568.359375 82.75 C 565.804688 85.984375 561.460938 88.285156 556.09375 88.285156 C 547.75 88.285156 543.066406 82.238281 543.066406 75.9375 C 543.066406 65.460938 552.347656 60.183594 567.675781 60.269531 L 567.675781 59.585938 C 567.675781 56.863281 566.574219 52.351563 559.246094 52.351563 C 555.160156 52.351563 550.902344 53.625 548.09375 55.414063 L 546.046875 48.601563 C 549.113281 46.726563 554.476563 44.941406 561.035156 44.941406 C 574.320313 44.941406 578.152344 53.371094 578.152344 62.398438 L 578.152344 77.382813 C 578.152344 81.132813 578.324219 84.792969 578.75 87.347656 "/>
<path style=" stroke:none;fill-rule:nonzero;fill:rgb(0%,50.59967%,58.799744%);fill-opacity:1;" d="M 586.324219 59.246094 C 586.324219 53.625 586.238281 49.625 585.984375 45.878906 L 595.09375 45.878906 L 595.433594 53.796875 L 595.773438 53.796875 C 597.820313 47.921875 602.671875 44.941406 607.101563 44.941406 C 608.125 44.941406 608.71875 45.027344 609.570313 45.195313 L 609.570313 55.074219 C 608.71875 54.902344 607.78125 54.734375 606.507813 54.734375 C 601.480469 54.734375 598.074219 57.96875 597.136719 62.652344 C 596.96875 63.589844 596.800781 64.695313 596.800781 65.890625 L 596.800781 87.347656 L 586.324219 87.347656 "/>
<path style=" stroke:none;fill-rule:nonzero;fill:rgb(0%,50.59967%,58.799744%);fill-opacity:1;" d="M 613.738281 87.347656 L 624.300781 87.347656 L 624.300781 45.878906 L 613.738281 45.878906 Z M 613.738281 87.347656 "/>
<path style=" stroke:none;fill-rule:nonzero;fill:rgb(0%,50.59967%,58.799744%);fill-opacity:1;" d="M 654.613281 67.082031 C 647.207031 66.910156 640.136719 68.527344 640.136719 74.828125 C 640.136719 78.917969 642.777344 80.792969 646.097656 80.792969 C 650.269531 80.792969 653.335938 78.066406 654.273438 75.085938 C 654.527344 74.320313 654.613281 73.46875 654.613281 72.785156 Z M 655.976563 87.347656 L 655.296875 82.75 L 655.039063 82.75 C 652.484375 85.984375 648.144531 88.285156 642.777344 88.285156 C 634.433594 88.285156 629.75 82.238281 629.75 75.9375 C 629.75 65.460938 639.027344 60.183594 654.359375 60.269531 L 654.359375 59.585938 C 654.359375 56.863281 653.25 52.351563 645.929688 52.351563 C 641.839844 52.351563 637.582031 53.625 634.773438 55.414063 L 632.726563 48.601563 C 635.792969 46.726563 641.160156 44.941406 647.71875 44.941406 C 661 44.941406 664.832031 53.371094 664.832031 62.398438 L 664.832031 77.382813 C 664.832031 81.132813 665.003906 84.792969 665.425781 87.347656 "/>
<path style=" stroke:none;fill-rule:nonzero;fill:rgb(0%,50.59967%,58.799744%);fill-opacity:1;" d="M 673.003906 58.226563 C 673.003906 53.457031 672.917969 49.453125 672.664063 45.878906 L 681.859375 45.878906 L 682.371094 52.09375 L 682.628906 52.09375 C 684.414063 48.855469 688.929688 44.941406 695.824219 44.941406 C 703.0625 44.941406 710.558594 49.625 710.558594 62.738281 L 710.558594 87.347656 L 700.085938 87.347656 L 700.085938 63.929688 C 700.085938 57.96875 697.871094 53.457031 692.164063 53.457031 C 687.988281 53.457031 685.097656 56.4375 683.988281 59.585938 C 683.648438 60.523438 683.5625 61.800781 683.5625 62.992188 L 683.5625 87.347656 L 673.003906 87.347656 "/>
<path style=" stroke:none;fill-rule:nonzero;fill:rgb(0%,50.59967%,58.799744%);fill-opacity:1;" d="M 726.988281 66.65625 C 726.988281 74.660156 730.90625 80.707031 737.292969 80.707031 C 743.253906 80.707031 747.425781 74.828125 747.425781 66.484375 C 747.425781 60.011719 744.527344 52.605469 737.378906 52.605469 C 729.96875 52.605469 726.988281 59.757813 726.988281 66.65625 M 758.238281 66.230469 C 758.238281 81.472656 747.511719 88.285156 736.949219 88.285156 C 725.199219 88.285156 716.171875 80.195313 716.171875 66.910156 C 716.171875 53.285156 725.117188 44.941406 737.632813 44.941406 C 749.976563 44.941406 758.238281 53.625 758.238281 66.230469 "/>
<path style=" stroke:none;fill-rule:nonzero;fill:rgb(0%,50.59967%,58.799744%);fill-opacity:1;" d="M 486.828125 39.917969 L 498.152344 39.917969 L 498.152344 28.589844 L 486.828125 28.589844 Z M 486.828125 39.917969 "/>
<path style=" stroke:none;fill-rule:nonzero;fill:rgb(0%,50.59967%,58.799744%);fill-opacity:1;" d="M 613.359375 39.917969 L 624.683594 39.917969 L 624.683594 28.589844 L 613.359375 28.589844 Z M 613.359375 39.917969 "/>
<path style=" stroke:none;fill-rule:nonzero;fill:rgb(0%,50.59967%,58.799744%);fill-opacity:1;" d="M 458.484375 129.277344 L 448.820313 129.277344 L 447.722656 135.519531 L 458.511719 135.519531 L 457.652344 140.390625 L 440.902344 140.390625 L 445.535156 114.109375 L 461.742188 114.109375 L 460.882813 118.984375 L 450.636719 118.984375 L 449.675781 124.441406 L 459.335938 124.441406 "/>
<g clip-path="url(#clip1)" clip-rule="nonzero">
<path style="fill:none;stroke-width:10;stroke-linecap:butt;stroke-linejoin:miter;stroke:rgb(0%,50.59967%,58.799744%);stroke-opacity:1;stroke-miterlimit:10;" d="M 4584.84375 120.426563 L 4488.203125 120.426563 L 4477.226563 58.004688 L 4585.117188 58.004688 L 4576.523438 9.29375 L 4409.023438 9.29375 L 4455.351563 272.10625 L 4617.421875 272.10625 L 4608.828125 223.35625 L 4506.367188 223.35625 L 4496.757813 168.785938 L 4593.359375 168.785938 Z M 4584.84375 120.426563 " transform="matrix(0.1,0,0,-0.1,0,141.32)"/>
</g>
<path style=" stroke:none;fill-rule:nonzero;fill:rgb(0%,50.59967%,58.799744%);fill-opacity:1;" d="M 466.042969 112.703125 L 471.964844 112.703125 L 467.082031 140.390625 L 461.160156 140.390625 Z M 466.042969 112.703125 "/>
<g clip-path="url(#clip2)" clip-rule="nonzero">
<path style="fill:none;stroke-width:10;stroke-linecap:butt;stroke-linejoin:miter;stroke:rgb(0%,50.59967%,58.799744%);stroke-opacity:1;stroke-miterlimit:10;" d="M 4660.429688 286.16875 L 4719.648438 286.16875 L 4670.820313 9.29375 L 4611.601563 9.29375 Z M 4660.429688 286.16875 " transform="matrix(0.1,0,0,-0.1,0,141.32)"/>
</g>
<path style=" stroke:none;fill-rule:nonzero;fill:rgb(0%,50.59967%,58.799744%);fill-opacity:1;" d="M 487.605469 124.519531 L 489.554688 124.519531 C 492.671875 124.519531 494.574219 123.234375 494.914063 121.285156 C 495.265625 119.292969 493.933594 118.242188 491.246094 118.242188 C 489.960938 118.242188 489.207031 118.320313 488.6875 118.398438 Z M 485.550781 136.179688 C 486.121094 136.257813 486.824219 136.257813 487.835938 136.257813 C 490.523438 136.257813 493.078125 135.242188 493.566406 132.476563 C 494.035156 129.824219 491.84375 128.769531 488.882813 128.769531 L 486.859375 128.769531 Z M 483.496094 114.457031 C 485.109375 114.148438 488.308594 113.914063 491.269531 113.914063 C 494.890625 113.914063 497.050781 114.265625 498.757813 115.394531 C 500.417969 116.371094 501.425781 118.164063 501.007813 120.542969 C 500.59375 122.882813 498.847656 125.066406 495.691406 126.160156 L 495.679688 126.234375 C 498.535156 127.054688 500.355469 129.316406 499.757813 132.707031 C 499.335938 135.085938 497.917969 136.960938 496.046875 138.285156 C 493.871094 139.808594 490.527344 140.664063 485.304688 140.664063 C 482.382813 140.664063 480.238281 140.46875 478.945313 140.273438 "/>
<g clip-path="url(#clip3)" clip-rule="nonzero">
<path style="fill:none;stroke-width:10;stroke-linecap:butt;stroke-linejoin:miter;stroke:rgb(0%,50.59967%,58.799744%);stroke-opacity:1;stroke-miterlimit:10;" d="M 4876.054688 168.004688 L 4895.546875 168.004688 C 4926.71875 168.004688 4945.742188 180.85625 4949.140625 200.348438 C 4952.65625 220.270313 4939.335938 230.778125 4912.460938 230.778125 C 4899.609375 230.778125 4892.070313 229.996875 4886.875 229.215625 Z M 4855.507813 51.403125 C 4861.210938 50.621875 4868.242188 50.621875 4878.359375 50.621875 C 4905.234375 50.621875 4930.78125 60.778125 4935.664063 88.434375 C 4940.351563 114.957813 4918.4375 125.504688 4888.828125 125.504688 L 4868.59375 125.504688 Z M 4834.960938 268.629688 C 4851.09375 271.715625 4883.085938 274.059375 4912.695313 274.059375 C 4948.90625 274.059375 4970.507813 270.54375 4987.578125 259.254688 C 5004.179688 249.489063 5014.257813 231.559375 5010.078125 207.770313 C 5005.9375 184.371875 4988.476563 162.535938 4956.914063 151.598438 L 4956.796875 150.85625 C 4985.351563 142.653125 5003.554688 120.035938 4997.578125 86.129688 C 4993.359375 62.340625 4979.179688 43.590625 4960.46875 30.348438 C 4938.710938 15.114063 4905.273438 6.559375 4853.046875 6.559375 C 4823.828125 6.559375 4802.382813 8.5125 4789.453125 10.465625 Z M 4834.960938 268.629688 " transform="matrix(0.1,0,0,-0.1,0,141.32)"/>
</g>
<path style=" stroke:none;fill-rule:nonzero;fill:rgb(0%,50.59967%,58.799744%);fill-opacity:1;" d="M 513.589844 131.382813 C 510.476563 131.34375 507.929688 132.085938 507.527344 134.386719 C 507.257813 135.90625 508.140625 136.648438 509.464844 136.648438 C 510.945313 136.648438 512.324219 135.671875 512.925781 134.464844 C 513.0625 134.152344 513.160156 133.800781 513.222656 133.449219 Z M 512.699219 140.390625 L 512.6875 138.480469 L 512.570313 138.480469 C 511.054688 140 508.964844 140.820313 506.703125 140.820313 C 502.847656 140.820313 501.042969 138.011719 501.578125 134.972656 C 502.453125 130.019531 507.3125 127.640625 514.046875 127.679688 L 514.09375 127.40625 C 514.273438 126.394531 513.980469 124.949219 511.0625 124.949219 C 509.109375 124.949219 506.929688 125.613281 505.546875 126.394531 L 505.128906 122.570313 C 506.585938 121.832031 509.359375 120.894531 512.828125 120.894531 C 519.175781 120.894531 520.542969 124.636719 519.753906 129.121094 L 518.582031 135.75 C 518.261719 137.585938 518.027344 139.339844 518.035156 140.390625 "/>
<g clip-path="url(#clip4)" clip-rule="nonzero">
<path style="fill:none;stroke-width:10;stroke-linecap:butt;stroke-linejoin:miter;stroke:rgb(0%,50.59967%,58.799744%);stroke-opacity:1;stroke-miterlimit:10;" d="M 5135.898438 99.371875 C 5104.765625 99.7625 5079.296875 92.340625 5075.273438 69.332813 C 5072.578125 54.1375 5081.40625 46.715625 5094.648438 46.715625 C 5109.453125 46.715625 5123.242188 56.48125 5129.257813 68.551563 C 5130.625 71.676563 5131.601563 75.192188 5132.226563 78.707813 Z M 5126.992188 9.29375 L 5126.875 28.395313 L 5125.703125 28.395313 C 5110.546875 13.2 5089.648438 4.996875 5067.03125 4.996875 C 5028.476563 4.996875 5010.429688 33.082813 5015.78125 63.473438 C 5024.53125 113.004688 5073.125 136.79375 5140.46875 136.403125 L 5140.9375 139.1375 C 5142.734375 149.254688 5139.804688 163.707813 5110.625 163.707813 C 5091.09375 163.707813 5069.296875 157.067188 5055.46875 149.254688 L 5051.289063 187.496875 C 5065.859375 194.879688 5093.59375 204.254688 5128.28125 204.254688 C 5191.757813 204.254688 5205.429688 166.832813 5197.539063 121.989063 L 5185.820313 55.7 C 5182.617188 37.340625 5180.273438 19.801563 5180.351563 9.29375 Z M 5126.992188 9.29375 " transform="matrix(0.1,0,0,-0.1,0,141.32)"/>
</g>
<path style=" stroke:none;fill-rule:nonzero;fill:rgb(0%,50.59967%,58.799744%);fill-opacity:1;" d="M 524.226563 127.40625 C 524.644531 125.027344 524.925781 123 525.140625 121.324219 L 530.285156 121.324219 L 530.09375 123.933594 L 530.210938 123.933594 C 531.203125 122.726563 533.476563 120.894531 536.632813 120.894531 C 540.527344 120.894531 542.996094 123.46875 542.003906 129.082031 L 540.011719 140.390625 L 534.089844 140.390625 L 535.953125 129.824219 C 536.386719 127.367188 535.824219 125.691406 533.683594 125.691406 C 532.046875 125.691406 530.871094 126.824219 530.289063 127.914063 C 530.074219 128.265625 529.890625 128.847656 529.796875 129.394531 L 527.855469 140.390625 L 521.933594 140.390625 "/>
<g clip-path="url(#clip5)" clip-rule="nonzero">
<path style="fill:none;stroke-width:10;stroke-linecap:butt;stroke-linejoin:miter;stroke:rgb(0%,50.59967%,58.799744%);stroke-opacity:1;stroke-miterlimit:10;" d="M 5242.265625 139.1375 C 5246.445313 162.926563 5249.257813 183.2 5251.40625 199.957813 L 5302.851563 199.957813 L 5300.9375 173.864063 L 5302.109375 173.864063 C 5312.03125 185.934375 5334.765625 204.254688 5366.328125 204.254688 C 5405.273438 204.254688 5429.960938 178.5125 5420.039063 122.379688 L 5400.117188 9.29375 L 5340.898438 9.29375 L 5359.53125 114.957813 C 5363.867188 139.528125 5358.242188 156.285938 5336.835938 156.285938 C 5320.46875 156.285938 5308.710938 144.957813 5302.890625 134.059375 C 5300.742188 130.54375 5298.90625 124.723438 5297.96875 119.254688 L 5278.554688 9.29375 L 5219.335938 9.29375 Z M 5242.265625 139.1375 " transform="matrix(0.1,0,0,-0.1,0,141.32)"/>
</g>
<path style=" stroke:none;fill-rule:nonzero;fill:rgb(0%,50.59967%,58.799744%);fill-opacity:1;" d="M 558.636719 139.925781 C 557.503906 140.390625 555.445313 140.78125 553.1875 140.78125 C 547.03125 140.78125 543.757813 137.039063 544.816406 131.03125 C 545.800781 125.457031 550.425781 120.894531 557.515625 120.894531 C 559.070313 120.894531 560.738281 121.167969 561.902344 121.636719 L 560.191406 126.042969 C 559.542969 125.730469 558.539063 125.457031 556.980469 125.457031 C 553.863281 125.457031 551.445313 127.679688 550.9375 130.800781 C 550.316406 134.308594 552.328125 136.140625 555.214844 136.140625 C 556.617188 136.140625 557.746094 135.90625 558.703125 135.558594 "/>
<g clip-path="url(#clip6)" clip-rule="nonzero">
<path style="fill:none;stroke-width:10;stroke-linecap:butt;stroke-linejoin:miter;stroke:rgb(0%,50.59967%,58.799744%);stroke-opacity:1;stroke-miterlimit:10;" d="M 5586.367188 13.942188 C 5575.039063 9.29375 5554.453125 5.3875 5531.875 5.3875 C 5470.3125 5.3875 5437.578125 42.809375 5448.164063 102.8875 C 5458.007813 158.629688 5504.257813 204.254688 5575.15625 204.254688 C 5590.703125 204.254688 5607.382813 201.520313 5619.023438 196.832813 L 5601.914063 152.770313 C 5595.429688 155.895313 5585.390625 158.629688 5569.804688 158.629688 C 5538.632813 158.629688 5514.453125 136.403125 5509.375 105.192188 C 5503.164063 70.114063 5523.28125 51.79375 5552.148438 51.79375 C 5566.171875 51.79375 5577.460938 54.1375 5587.03125 57.614063 Z M 5586.367188 13.942188 " transform="matrix(0.1,0,0,-0.1,0,141.32)"/>
</g>
<path style=" stroke:none;fill-rule:nonzero;fill:rgb(0%,50.59967%,58.799744%);fill-opacity:1;" d="M 567.605469 130.835938 C 567.027344 134.113281 567.957031 136.570313 570.488281 136.570313 C 572.785156 136.570313 574.671875 134.269531 575.277344 130.835938 C 575.78125 127.988281 575.199219 125.105469 572.511719 125.105469 C 569.667969 125.105469 568.097656 128.027344 567.605469 130.835938 M 581.429688 130.644531 C 580.195313 137.625 574.683594 140.820313 569.582031 140.820313 C 564.011719 140.820313 560.375 137.152344 561.457031 130.992188 C 562.546875 124.832031 567.292969 120.894531 573.40625 120.894531 C 579.25 120.894531 582.441406 124.910156 581.429688 130.644531 "/>
<g clip-path="url(#clip7)" clip-rule="nonzero">
<path style="fill:none;stroke-width:10;stroke-linecap:butt;stroke-linejoin:miter;stroke:rgb(0%,50.59967%,58.799744%);stroke-opacity:1;stroke-miterlimit:10;" d="M 5676.054688 104.840625 C 5670.273438 72.067188 5679.570313 47.496875 5704.882813 47.496875 C 5727.851563 47.496875 5746.71875 70.504688 5752.773438 104.840625 C 5757.8125 133.317188 5751.992188 162.145313 5725.117188 162.145313 C 5696.679688 162.145313 5680.976563 132.926563 5676.054688 104.840625 Z M 5814.296875 106.754688 C 5801.953125 36.95 5746.835938 4.996875 5695.820313 4.996875 C 5640.117188 4.996875 5603.75 41.676563 5614.570313 103.278125 C 5625.46875 164.879688 5672.929688 204.254688 5734.0625 204.254688 C 5792.5 204.254688 5824.414063 164.098438 5814.296875 106.754688 Z M 5814.296875 106.754688 " transform="matrix(0.1,0,0,-0.1,0,141.32)"/>
</g>
<path style=" stroke:none;fill-rule:nonzero;fill:rgb(0%,50.59967%,58.799744%);fill-opacity:1;" d="M 604.609375 139.925781 C 603.472656 140.390625 601.417969 140.78125 599.160156 140.78125 C 593.003906 140.78125 589.730469 137.039063 590.789063 131.03125 C 591.769531 125.457031 596.394531 120.894531 603.484375 120.894531 C 605.042969 120.894531 606.707031 121.167969 607.871094 121.636719 L 606.160156 126.042969 C 605.515625 125.730469 604.507813 125.457031 602.953125 125.457031 C 599.835938 125.457031 597.417969 127.679688 596.90625 130.800781 C 596.289063 134.308594 598.300781 136.140625 601.183594 136.140625 C 602.585938 136.140625 603.71875 135.90625 604.675781 135.558594 "/>
<g clip-path="url(#clip8)" clip-rule="nonzero">
<path style="fill:none;stroke-width:10;stroke-linecap:butt;stroke-linejoin:miter;stroke:rgb(0%,50.59967%,58.799744%);stroke-opacity:1;stroke-miterlimit:10;" d="M 6046.09375 13.942188 C 6034.726563 9.29375 6014.179688 5.3875 5991.601563 5.3875 C 5930.039063 5.3875 5897.304688 42.809375 5907.890625 102.8875 C 5917.695313 158.629688 5963.945313 204.254688 6034.84375 204.254688 C 6050.429688 204.254688 6067.070313 201.520313 6078.710938 196.832813 L 6061.601563 152.770313 C 6055.15625 155.895313 6045.078125 158.629688 6029.53125 158.629688 C 5998.359375 158.629688 5974.179688 136.403125 5969.0625 105.192188 C 5962.890625 70.114063 5983.007813 51.79375 6011.835938 51.79375 C 6025.859375 51.79375 6037.1875 54.1375 6046.757813 57.614063 Z M 6046.09375 13.942188 " transform="matrix(0.1,0,0,-0.1,0,141.32)"/>
</g>
<path style=" stroke:none;fill-rule:nonzero;fill:rgb(0%,50.59967%,58.799744%);fill-opacity:1;" d="M 613.574219 130.835938 C 612.996094 134.113281 613.929688 136.570313 616.460938 136.570313 C 618.757813 136.570313 620.644531 134.269531 621.25 130.835938 C 621.75 127.988281 621.167969 125.105469 618.480469 125.105469 C 615.636719 125.105469 614.070313 128.027344 613.574219 130.835938 M 627.398438 130.644531 C 626.171875 137.625 620.65625 140.820313 615.554688 140.820313 C 609.984375 140.820313 606.34375 137.152344 607.429688 130.992188 C 608.519531 124.832031 613.265625 120.894531 619.382813 120.894531 C 625.222656 120.894531 628.410156 124.910156 627.398438 130.644531 "/>
<g clip-path="url(#clip9)" clip-rule="nonzero">
<path style="fill:none;stroke-width:10;stroke-linecap:butt;stroke-linejoin:miter;stroke:rgb(0%,50.59967%,58.799744%);stroke-opacity:1;stroke-miterlimit:10;" d="M 6135.742188 104.840625 C 6129.960938 72.067188 6139.296875 47.496875 6164.609375 47.496875 C 6187.578125 47.496875 6206.445313 70.504688 6212.5 104.840625 C 6217.5 133.317188 6211.679688 162.145313 6184.804688 162.145313 C 6156.367188 162.145313 6140.703125 132.926563 6135.742188 104.840625 Z M 6273.984375 106.754688 C 6261.71875 36.95 6206.5625 4.996875 6155.546875 4.996875 C 6099.84375 4.996875 6063.4375 41.676563 6074.296875 103.278125 C 6085.195313 164.879688 6132.65625 204.254688 6193.828125 204.254688 C 6252.226563 204.254688 6284.101563 164.098438 6273.984375 106.754688 Z M 6273.984375 106.754688 " transform="matrix(0.1,0,0,-0.1,0,141.32)"/>
</g>
<path style=" stroke:none;fill-rule:nonzero;fill:rgb(0%,50.59967%,58.799744%);fill-opacity:1;" d="M 631.128906 127.40625 C 631.546875 125.027344 631.824219 123 632.042969 121.324219 L 637.1875 121.324219 L 636.996094 123.933594 L 637.113281 123.933594 C 638.105469 122.726563 640.378906 120.894531 643.53125 120.894531 C 647.429688 120.894531 649.898438 123.46875 648.90625 129.082031 L 646.914063 140.390625 L 640.988281 140.390625 L 642.855469 129.824219 C 643.289063 127.367188 642.730469 125.691406 640.585938 125.691406 C 638.949219 125.691406 637.773438 126.824219 637.191406 127.914063 C 636.972656 128.265625 636.796875 128.847656 636.695313 129.394531 L 634.757813 140.390625 L 628.835938 140.390625 "/>
<g clip-path="url(#clip10)" clip-rule="nonzero">
<path style="fill:none;stroke-width:10;stroke-linecap:butt;stroke-linejoin:miter;stroke:rgb(0%,50.59967%,58.799744%);stroke-opacity:1;stroke-miterlimit:10;" d="M 6311.289063 139.1375 C 6315.46875 162.926563 6318.242188 183.2 6320.429688 199.957813 L 6371.875 199.957813 L 6369.960938 173.864063 L 6371.132813 173.864063 C 6381.054688 185.934375 6403.789063 204.254688 6435.3125 204.254688 C 6474.296875 204.254688 6498.984375 178.5125 6489.0625 122.379688 L 6469.140625 9.29375 L 6409.882813 9.29375 L 6428.554688 114.957813 C 6432.890625 139.528125 6427.304688 156.285938 6405.859375 156.285938 C 6389.492188 156.285938 6377.734375 144.957813 6371.914063 134.059375 C 6369.726563 130.54375 6367.96875 124.723438 6366.953125 119.254688 L 6347.578125 9.29375 L 6288.359375 9.29375 Z M 6311.289063 139.1375 " transform="matrix(0.1,0,0,-0.1,0,141.32)"/>
</g>
<path style=" stroke:none;fill-rule:nonzero;fill:rgb(0%,50.59967%,58.799744%);fill-opacity:1;" d="M 663.472656 140.390625 L 659.691406 114.109375 L 666.195313 114.109375 L 667.433594 125.222656 C 667.777344 128.34375 668.066406 131.34375 668.113281 134.621094 L 668.230469 134.621094 C 669.449219 131.460938 670.816406 128.34375 672.242188 125.339844 L 677.570313 114.109375 L 683.882813 114.109375 L 670.40625 140.390625 "/>
<g clip-path="url(#clip11)" clip-rule="nonzero">
<path style="fill:none;stroke-width:10;stroke-linecap:butt;stroke-linejoin:miter;stroke:rgb(0%,50.59967%,58.799744%);stroke-opacity:1;stroke-miterlimit:10;" d="M 6634.726563 9.29375 L 6596.914063 272.10625 L 6661.953125 272.10625 L 6674.335938 160.973438 C 6677.773438 129.7625 6680.664063 99.7625 6681.132813 66.989063 L 6682.304688 66.989063 C 6694.492188 98.590625 6708.164063 129.7625 6722.421875 159.801563 L 6775.703125 272.10625 L 6838.828125 272.10625 L 6704.0625 9.29375 Z M 6634.726563 9.29375 " transform="matrix(0.1,0,0,-0.1,0,141.32)"/>
</g>
<path style=" stroke:none;fill-rule:nonzero;fill:rgb(0%,50.59967%,58.799744%);fill-opacity:1;" d="M 680.738281 140.390625 L 684.101563 121.324219 L 690.023438 121.324219 L 686.660156 140.390625 Z M 680.738281 140.390625 "/>
<g clip-path="url(#clip12)" clip-rule="nonzero">
<path style="fill:none;stroke-width:10;stroke-linecap:butt;stroke-linejoin:miter;stroke:rgb(0%,50.59967%,58.799744%);stroke-opacity:1;stroke-miterlimit:10;" d="M 6807.382813 9.29375 L 6841.015625 199.957813 L 6900.234375 199.957813 L 6866.601563 9.29375 Z M 6807.382813 9.29375 " transform="matrix(0.1,0,0,-0.1,0,141.32)"/>
</g>
<path style=" stroke:none;fill-rule:nonzero;fill:rgb(0%,50.59967%,58.799744%);fill-opacity:1;" d="M 691.34375 135.203125 C 692.320313 135.867188 694.441406 136.648438 696.195313 136.648438 C 697.984375 136.648438 698.835938 136.023438 699.007813 135.050781 C 699.179688 134.074219 698.675781 133.605469 696.585938 132.867188 C 692.886719 131.539063 691.742188 129.394531 692.183594 127.132813 C 692.808594 123.585938 696.324219 120.894531 701.035156 120.894531 C 703.257813 120.894531 705.152344 121.402344 706.21875 121.984375 L 704.445313 126.082031 C 703.671875 125.613281 702.144531 124.988281 700.507813 124.988281 C 699.066406 124.988281 698.144531 125.574219 697.972656 126.546875 C 697.816406 127.445313 698.472656 127.914063 700.664063 128.730469 C 704.070313 129.980469 705.265625 131.8125 704.808594 134.621094 C 704.183594 138.167969 700.917969 140.78125 695.464844 140.78125 C 692.972656 140.78125 690.847656 140.234375 689.542969 139.457031 "/>
<g clip-path="url(#clip13)" clip-rule="nonzero">
<path style="fill:none;stroke-width:10;stroke-linecap:butt;stroke-linejoin:miter;stroke:rgb(0%,50.59967%,58.799744%);stroke-opacity:1;stroke-miterlimit:10;" d="M 6913.4375 61.16875 C 6923.203125 54.528125 6944.414063 46.715625 6961.953125 46.715625 C 6979.84375 46.715625 6988.359375 52.965625 6990.078125 62.692188 C 6991.796875 72.457813 6986.757813 77.145313 6965.859375 84.528125 C 6928.867188 97.809375 6917.421875 119.254688 6921.835938 141.871875 C 6928.085938 177.340625 6963.242188 204.254688 7010.351563 204.254688 C 7032.578125 204.254688 7051.523438 199.176563 7062.1875 193.35625 L 7044.453125 152.379688 C 7036.71875 157.067188 7021.445313 163.317188 7005.078125 163.317188 C 6990.664063 163.317188 6981.445313 157.457813 6979.726563 147.73125 C 6978.164063 138.746875 6984.726563 134.059375 7006.640625 125.895313 C 7040.703125 113.395313 7052.65625 95.075 7048.085938 66.989063 C 7041.835938 31.520313 7009.179688 5.3875 6954.648438 5.3875 C 6929.726563 5.3875 6908.476563 10.85625 6895.429688 18.629688 Z M 6913.4375 61.16875 " transform="matrix(0.1,0,0,-0.1,0,141.32)"/>
</g>
<path style=" stroke:none;fill-rule:nonzero;fill:rgb(0%,50.59967%,58.799744%);fill-opacity:1;" d="M 706.871094 140.390625 L 710.230469 121.324219 L 716.152344 121.324219 L 712.792969 140.390625 Z M 706.871094 140.390625 "/>
<g clip-path="url(#clip14)" clip-rule="nonzero">
<path style="fill:none;stroke-width:10;stroke-linecap:butt;stroke-linejoin:miter;stroke:rgb(0%,50.59967%,58.799744%);stroke-opacity:1;stroke-miterlimit:10;" d="M 7068.710938 9.29375 L 7102.304688 199.957813 L 7161.523438 199.957813 L 7127.929688 9.29375 Z M 7068.710938 9.29375 " transform="matrix(0.1,0,0,-0.1,0,141.32)"/>
</g>
<path style=" stroke:none;fill-rule:nonzero;fill:rgb(0%,50.59967%,58.799744%);fill-opacity:1;" d="M 736.941406 113.015625 L 731.144531 118.945313 L 727.054688 118.945313 L 731.449219 113.015625 Z M 723.75 130.835938 C 723.171875 134.113281 724.101563 136.570313 726.632813 136.570313 C 728.933594 136.570313 730.816406 134.269531 731.421875 130.835938 C 731.925781 127.992188 731.34375 125.105469 728.65625 125.105469 C 725.8125 125.105469 724.242188 128.03125 723.75 130.835938 M 737.574219 130.644531 C 736.339844 137.621094 730.832031 140.820313 725.726563 140.820313 C 720.15625 140.820313 716.519531 137.15625 717.605469 130.992188 C 718.691406 124.832031 723.4375 120.894531 729.554688 120.894531 C 735.398438 120.894531 738.585938 124.910156 737.574219 130.644531 "/>
<g clip-path="url(#clip15)" clip-rule="nonzero">
<path style="fill:none;stroke-width:10;stroke-linecap:butt;stroke-linejoin:miter;stroke:rgb(0%,50.59967%,58.799744%);stroke-opacity:1;stroke-miterlimit:10;" d="M 7369.414063 283.04375 L 7311.445313 223.746875 L 7270.546875 223.746875 L 7314.492188 283.04375 Z M 7237.5 104.840625 C 7231.71875 72.067188 7241.015625 47.496875 7266.328125 47.496875 C 7289.335938 47.496875 7308.164063 70.504688 7314.21875 104.840625 C 7319.257813 133.278125 7313.4375 162.145313 7286.5625 162.145313 C 7258.125 162.145313 7242.421875 132.8875 7237.5 104.840625 Z M 7375.742188 106.754688 C 7363.398438 36.989063 7308.320313 4.996875 7257.265625 4.996875 C 7201.5625 4.996875 7165.195313 41.6375 7176.054688 103.278125 C 7186.914063 164.879688 7234.375 204.254688 7295.546875 204.254688 C 7353.984375 204.254688 7385.859375 164.098438 7375.742188 106.754688 Z M 7375.742188 106.754688 " transform="matrix(0.1,0,0,-0.1,0,141.32)"/>
</g>
<g clip-path="url(#clip16)" clip-rule="nonzero">
<path style=" stroke:none;fill-rule:nonzero;fill:rgb(0%,50.59967%,58.799744%);fill-opacity:1;" d="M 741.300781 127.40625 C 741.71875 125.027344 741.996094 123 742.21875 121.324219 L 747.359375 121.324219 L 747.171875 123.933594 L 747.289063 123.933594 C 748.28125 122.726563 750.550781 120.894531 753.707031 120.894531 C 757.605469 120.894531 760.070313 123.46875 759.078125 129.082031 L 757.089844 140.390625 L 751.164063 140.390625 L 753.027344 129.824219 C 753.464844 127.367188 752.898438 125.691406 750.757813 125.691406 C 749.121094 125.691406 747.949219 126.824219 747.367188 127.914063 C 747.148438 128.265625 746.964844 128.847656 746.871094 129.394531 L 744.933594 140.390625 L 739.011719 140.390625 "/>
</g>
<g clip-path="url(#clip17)" clip-rule="nonzero">
<path style="fill:none;stroke-width:10;stroke-linecap:butt;stroke-linejoin:miter;stroke:rgb(0%,50.59967%,58.799744%);stroke-opacity:1;stroke-miterlimit:10;" d="M 7413.007813 139.1375 C 7417.1875 162.926563 7419.960938 183.2 7422.1875 199.957813 L 7473.59375 199.957813 L 7471.71875 173.864063 L 7472.890625 173.864063 C 7482.8125 185.934375 7505.507813 204.254688 7537.070313 204.254688 C 7576.054688 204.254688 7600.703125 178.5125 7590.78125 122.379688 L 7570.898438 9.29375 L 7511.640625 9.29375 L 7530.273438 114.957813 C 7534.648438 139.528125 7528.984375 156.285938 7507.578125 156.285938 C 7491.210938 156.285938 7479.492188 144.957813 7473.671875 134.059375 C 7471.484375 130.54375 7469.648438 124.723438 7468.710938 119.254688 L 7449.335938 9.29375 L 7390.117188 9.29375 Z M 7413.007813 139.1375 " transform="matrix(0.1,0,0,-0.1,0,141.32)"/>
</g>
</g>
</svg>
